<svg xmlns="http://www.w3.org/2000/svg" width="19" height="20" viewBox="0 0 19 20"><g><g><path fill="#ef8a22" d="M17.11 10.8c0 .773-.52 1.426-1.226 1.623V8.188c.706.196 1.225.85 1.225 1.624zM9.5 18.1A1.018 1.018 0 0 1 8.49 17.08c0-.564.454-1.023 1.012-1.023s1.01.458 1.01 1.023c0 .563-.452 1.022-1.01 1.022zm-6.383-5.677A1.684 1.684 0 0 1 1.89 10.8v-.987c0-.774.52-1.428 1.226-1.624zm12.762-5.156C15.782 3.795 12.959 1 9.5 1c-3.459 0-6.283 2.796-6.38 6.268A2.584 2.584 0 0 0 1 9.816v.99c0 1.427 1.15 2.59 2.563 2.59a.449.449 0 0 0 .446-.451S4 7.6 3.992 7.564a.446.446 0 0 0 .017-.114C4.009 4.39 6.472 1.9 9.5 1.9s5.493 2.491 5.493 5.551c0 .04.005.077.015.114-.01.036-.016 7.118-.016 7.118a1.94 1.94 0 0 1-1.926 1.946h-1.72A1.908 1.908 0 0 0 9.5 15.156c-1.049 0-1.902.862-1.902 1.923C7.598 18.139 8.45 19 9.5 19c.896 0 1.646-.629 1.847-1.472h1.72c1.552 0 2.816-1.277 2.816-2.846v-1.328A2.583 2.583 0 0 0 18 10.806v-.99a2.584 2.584 0 0 0-2.121-2.549z"/><path fill="none" stroke="#ef8a22" stroke-miterlimit="20" stroke-width=".5" d="M17.11 10.8c0 .773-.52 1.426-1.226 1.623V8.188c.706.196 1.225.85 1.225 1.624zM9.5 18.1A1.018 1.018 0 0 1 8.49 17.08c0-.564.454-1.023 1.012-1.023s1.01.458 1.01 1.023c0 .563-.452 1.022-1.01 1.022zm-6.383-5.677A1.684 1.684 0 0 1 1.89 10.8v-.987c0-.774.52-1.428 1.226-1.624zm12.762-5.156C15.782 3.795 12.959 1 9.5 1c-3.459 0-6.283 2.796-6.38 6.268A2.584 2.584 0 0 0 1 9.816v.99c0 1.427 1.15 2.59 2.563 2.59a.449.449 0 0 0 .446-.451S4 7.6 3.992 7.564a.446.446 0 0 0 .017-.114C4.009 4.39 6.472 1.9 9.5 1.9s5.493 2.491 5.493 5.551c0 .04.005.077.015.114-.01.036-.016 7.118-.016 7.118a1.94 1.94 0 0 1-1.926 1.946h-1.72A1.908 1.908 0 0 0 9.5 15.156c-1.049 0-1.902.862-1.902 1.923C7.598 18.139 8.45 19 9.5 19c.896 0 1.646-.629 1.847-1.472h1.72c1.552 0 2.816-1.277 2.816-2.846v-1.328A2.583 2.583 0 0 0 18 10.806v-.99a2.584 2.584 0 0 0-2.121-2.549z"/></g></g></svg>