<svg xmlns="http://www.w3.org/2000/svg" width="16" height="14" viewBox="0 0 16 14"><g><g><path fill="#ef8a22" d="M12.079 6.682c.13 0 .222-.093.222-.224a.214.214 0 0 0-.222-.223H3.921a.215.215 0 0 0-.223.223c0 .13.112.224.223.224zM3.92 4.965H7.62c.13 0 .223-.093.223-.224a.215.215 0 0 0-.223-.224H3.92a.215.215 0 0 0-.223.224c0 .13.112.224.223.224zm0-1.717H7.62c.13 0 .223-.093.223-.224a.215.215 0 0 0-.223-.224H3.92a.215.215 0 0 0-.223.224c0 .13.112.224.223.224zm6.244-1.717l2.862 2.884h-2.862zM1.45 8.213c0 .242.204.448.446.447a.453.453 0 0 0 .446-.448V.895h6.931l.001 3.977c0 .242.204.448.446.448h3.957l.002 2.893c0 .242.204.448.445.448a.453.453 0 0 0 .446-.448v-3.34c0-.019-.019-.019-.019-.038a.414.414 0 0 0-.112-.28L10.035.131A.375.375 0 0 0 9.757.02C9.739.019 9.739 0 9.72 0H1.896a.453.453 0 0 0-.446.448zM16 12.768c-.018-1.643-1.022-2.744-1.022-2.763-1.227-.803-4.219-1.53-6.987-1.53-2.75 0-5.742.709-6.969 1.53 0 0-1.003 1.1-1.022 2.744v.99c0 .13.112.242.242.242h4.144c.13 0 .242-.112.242-.243v-.97l-.112-1.027s1.059-.69 3.493-.69c2.435 0 3.494.69 3.494.69l-.112 1.027v.99c0 .13.112.242.242.242h4.125c.13 0 .242-.112.242-.243v-.99z"/></g></g></svg>