<svg xmlns="http://www.w3.org/2000/svg" width="16" height="20" viewBox="0 0 16 20"><g><g><path fill="#ef8a22" d="M11.2 4.5c0 1.543-1.435 2.8-3.2 2.8-1.764 0-3.2-1.257-3.2-2.8 0-1.545 1.436-2.8 3.2-2.8 1.764 0 3.2 1.255 3.2 2.8zM8 8c2.206 0 4-1.57 4-3.5S10.206 1 8 1 4 2.57 4 4.5 5.794 8 8 8z"/><path fill="none" stroke="#ef8a22" stroke-miterlimit="20" stroke-width=".5" d="M11.2 4.5c0 1.543-1.435 2.8-3.2 2.8-1.764 0-3.2-1.257-3.2-2.8 0-1.545 1.436-2.8 3.2-2.8 1.764 0 3.2 1.255 3.2 2.8zM8 8c2.206 0 4-1.57 4-3.5S10.206 1 8 1 4 2.57 4 4.5 5.794 8 8 8z"/></g><g><path fill="#ef8a22" d="M14.199 18.198H1.803v-2.039c0-.017 0-.035-.002-.046 0-3.474 2.78-6.3 6.199-6.3 3.417 0 6.196 2.823 6.199 6.294a.532.532 0 0 0 0 .098zM15 16.105C15 12.188 11.86 9 8 9s-7 3.188-7 7.105c0 .02 0 .038.002.048v2.44c0 .225.18.407.401.407h13.196c.222 0 .401-.182.401-.407v-2.439-.022-.027z"/><path fill="none" stroke="#ef8a22" stroke-miterlimit="20" stroke-width=".5" d="M14.199 18.198H1.803v-2.039c0-.017 0-.035-.002-.046 0-3.474 2.78-6.3 6.199-6.3 3.417 0 6.196 2.823 6.199 6.294a.532.532 0 0 0 0 .098zM15 16.105C15 12.188 11.86 9 8 9s-7 3.188-7 7.105c0 .02 0 .038.002.048v2.44c0 .225.18.407.401.407h13.196c.222 0 .401-.182.401-.407v-2.439-.022-.027z"/></g></g></svg>