<svg xmlns="http://www.w3.org/2000/svg" width="29" height="29" viewBox="0 0 29 29"><g><g><path fill="#ef8a22" d="M27.81 19.816l-6.97-1.393c-.526-.106-1.26.119-1.64.498l-1.26 1.26c-.502.504-1.377.578-1.95.159-1.153-.845-2.732-1.984-4.036-3.29-1.305-1.306-2.443-2.885-3.289-4.036-.419-.573-.343-1.448.16-1.95l1.26-1.26c.38-.38.601-1.114.497-1.64l-1.393-6.97C9.057.536 8.405.004 7.734.004L4.657 0C3.256 0 1.495 2.154.757 3.15c-.201.272-.424.763-.48 1.092-.354 2.084-1.64 8.708 7.066 17.416 8.708 8.707 15.334 7.418 17.416 7.065.33-.056.82-.28 1.09-.478.997-.74 3.151-2.501 3.151-3.9v-3.073c.002-.672-.533-1.326-1.19-1.456z"/></g></g></svg>