<svg xmlns="http://www.w3.org/2000/svg" width="67.6" height="52.8" viewBox="0 0 67.6 52.8"><g><path d="M29.2.51c2.4,0,3.6.73,3.6,2.2a2.14,2.14,0,0,1-.7,1.5,3.72,3.72,0,0,1-2.1.9,33.84,33.84,0,0,0-8.8,3.4,20.8,20.8,0,0,0-7.4,6.9q-3,4.5-3,11.5a9.9,9.9,0,0,0,2.2,5.5,7.2,7.2,0,0,0,5.6,3.3,11.05,11.05,0,0,1,6.9,2.8,7.54,7.54,0,0,1,2.5,5.6,8.07,8.07,0,0,1-3.3,6.6,12.11,12.11,0,0,1-7.7,2.6,15,15,0,0,1-11.9-5.5Q.39,42.31.4,33.91a30.6,30.6,0,0,1,3-13.7A36.76,36.76,0,0,1,11,9.71a37.71,37.71,0,0,1,9.5-6.8A20.18,20.18,0,0,1,29.2.51Zm35.2,0c2.4,0,3.6.73,3.6,2.2a2.14,2.14,0,0,1-.7,1.5,3.72,3.72,0,0,1-2.1.9,33.84,33.84,0,0,0-8.8,3.4,20.8,20.8,0,0,0-7.4,6.9q-3,4.5-3,11.5a9.9,9.9,0,0,0,2.2,5.5,7.2,7.2,0,0,0,5.6,3.3,11.05,11.05,0,0,1,6.9,2.8,7.54,7.54,0,0,1,2.5,5.6,8.07,8.07,0,0,1-3.3,6.6,12.11,12.11,0,0,1-7.7,2.6,15,15,0,0,1-11.9-5.5q-4.71-5.51-4.7-13.9a30.6,30.6,0,0,1,3-13.7,36.76,36.76,0,0,1,7.6-10.5,37.71,37.71,0,0,1,9.5-6.8A20.18,20.18,0,0,1,64.4.51Z" transform="translate(-0.4 -0.51)"/></g></svg>